<svg width="32" height="32" viewBox="0 0 32 32" fill="none" xmlns="http://www.w3.org/2000/svg">
<path d="M24.3334 16V23.5C24.3334 23.9602 23.9603 24.3333 23.5 24.3333H22.6667C22.2064 24.3333 21.8334 23.9602 21.8334 23.5V22.6667H10.1667V23.5C10.1667 23.9602 9.79359 24.3333 9.33335 24.3333H8.50002C8.03979 24.3333 7.66669 23.9602 7.66669 23.5V16L9.73377 11.1768C9.9964 10.564 10.599 10.1667 11.2657 10.1667H13.5V8.5H18.5V10.1667H20.7344C21.4011 10.1667 22.0036 10.564 22.2663 11.1768L24.3334 16ZM9.47997 16H22.5201L20.7344 11.8333H11.2657L9.47997 16ZM11.4167 20.1667C12.107 20.1667 12.6667 19.607 12.6667 18.9167C12.6667 18.2263 12.107 17.6667 11.4167 17.6667C10.7263 17.6667 10.1667 18.2263 10.1667 18.9167C10.1667 19.607 10.7263 20.1667 11.4167 20.1667ZM20.5834 20.1667C21.2737 20.1667 21.8334 19.607 21.8334 18.9167C21.8334 18.2263 21.2737 17.6667 20.5834 17.6667C19.893 17.6667 19.3334 18.2263 19.3334 18.9167C19.3334 19.607 19.893 20.1667 20.5834 20.1667Z" fill="#BEBEBE"/>
</svg>
