<svg width="66" height="41" viewBox="0 0 66 41" fill="none" xmlns="http://www.w3.org/2000/svg">
<rect width="66" height="41" rx="4" fill="#004080"/>
<path d="M38 12.5H28C25 12.5 23 14 23 17.5V24.5C23 28 25 29.5 28 29.5H38C41 29.5 43 28 43 24.5V17.5C43 14 41 12.5 38 12.5ZM29 26.75H26C25.59 26.75 25.25 26.41 25.25 26C25.25 25.59 25.59 25.25 26 25.25H29C29.41 25.25 29.75 25.59 29.75 26C29.75 26.41 29.41 26.75 29 26.75ZM33 24C31.34 24 30 22.66 30 21C30 19.34 31.34 18 33 18C34.66 18 36 19.34 36 21C36 22.66 34.66 24 33 24ZM40 16.75H37C36.59 16.75 36.25 16.41 36.25 16C36.25 15.59 36.59 15.25 37 15.25H40C40.41 15.25 40.75 15.59 40.75 16C40.75 16.41 40.41 16.75 40 16.75Z" fill="#EBF5FF"/>
</svg>
