<svg width="18" height="18" viewBox="0 0 18 18" fill="none" xmlns="http://www.w3.org/2000/svg">
<path d="M9.00002 17.3334C4.39765 17.3334 0.666687 13.6024 0.666687 9.00002C0.666687 4.39765 4.39765 0.666687 9.00002 0.666687C13.6024 0.666687 17.3334 4.39765 17.3334 9.00002C17.3334 13.6024 13.6024 17.3334 9.00002 17.3334ZM8.16669 11.5V13.1667H9.83335V11.5H8.16669ZM9.83335 10.1293C11.0381 9.77069 11.9167 8.6546 11.9167 7.33335C11.9167 5.72252 10.6109 4.41669 9.00002 4.41669C7.58502 4.41669 6.40533 5.42435 6.13945 6.76124L7.77402 7.08816C7.88802 6.51521 8.3936 6.08335 9.00002 6.08335C9.69035 6.08335 10.25 6.643 10.25 7.33335C10.25 8.02369 9.69035 8.58335 9.00002 8.58335C8.53977 8.58335 8.16669 8.95644 8.16669 9.41669V10.6667H9.83335V10.1293Z" fill="#BEBEBE"/>
</svg>
