<svg width="20" height="20" viewBox="0 0 20 20" fill="none" xmlns="http://www.w3.org/2000/svg">
<g clip-path="url(#clip0_201_1632)">
<path d="M7.23867 3.33336L9.41086 1.1612C9.73627 0.835754 10.2639 0.835754 10.5894 1.1612L12.7615 3.33336H15.8334C16.2937 3.33336 16.6668 3.70646 16.6668 4.1667V7.2386L18.8389 9.4108C19.1644 9.73621 19.1644 10.2639 18.8389 10.5893L16.6668 12.7615V15.8334C16.6668 16.2936 16.2937 16.6667 15.8334 16.6667H12.7615L10.5894 18.8389C10.2639 19.1643 9.73627 19.1643 9.41086 18.8389L7.23867 16.6667H4.16676C3.70652 16.6667 3.33342 16.2936 3.33342 15.8334V12.7615L1.16126 10.5893C0.835815 10.2639 0.835815 9.73621 1.16126 9.4108L3.33342 7.2386V4.1667C3.33342 3.70646 3.70652 3.33336 4.16676 3.33336H7.23867ZM10.0001 12.5C11.3808 12.5 12.5001 11.3807 12.5001 10C12.5001 8.6193 11.3808 7.50003 10.0001 7.50003C8.61936 7.50003 7.50009 8.6193 7.50009 10C7.50009 11.3807 8.61936 12.5 10.0001 12.5Z" fill="#BEBEBE"/>
</g>
<defs>
<clipPath id="clip0_201_1632">
<rect width="20" height="20" fill="white"/>
</clipPath>
</defs>
</svg>
