<svg width="18" height="16" viewBox="0 0 18 16" fill="none" xmlns="http://www.w3.org/2000/svg">
<path d="M8.17073 15.4997C8.17073 14.8093 7.61107 14.2497 6.92072 14.2497C6.23037 14.2497 5.67072 14.8093 5.67072 15.4997H1.50405C1.04382 15.4997 0.670715 15.1266 0.670715 14.6664V1.33303C0.670715 0.872795 1.04382 0.499695 1.50405 0.499695H5.67072C5.67072 1.19005 6.23037 1.74969 6.92072 1.74969C7.61107 1.74969 8.17073 1.19005 8.17073 0.499695H16.5041C16.9643 0.499695 17.3374 0.872795 17.3374 1.33303V5.91636C16.1868 5.91636 15.2541 6.84914 15.2541 7.99973C15.2541 9.15031 16.1868 10.0831 17.3374 10.0831V14.6664C17.3374 15.1266 16.9643 15.4997 16.5041 15.4997H8.17073ZM6.92072 6.74973C7.61107 6.74973 8.17073 6.19005 8.17073 5.49969C8.17073 4.80934 7.61107 4.24969 6.92072 4.24969C6.23037 4.24969 5.67072 4.80934 5.67072 5.49969C5.67072 6.19005 6.23037 6.74973 6.92072 6.74973ZM6.92072 11.7497C7.61107 11.7497 8.17073 11.1901 8.17073 10.4997C8.17073 9.80931 7.61107 9.24973 6.92072 9.24973C6.23037 9.24973 5.67072 9.80931 5.67072 10.4997C5.67072 11.1901 6.23037 11.7497 6.92072 11.7497Z" fill="#BEBEBE"/>
</svg>
